<?xml version="1.0" standalone="no"?>
<!DOCTYPE svg PUBLIC "-//W3C//DTD SVG 20010904//EN"
 "http://www.w3.org/TR/2001/REC-SVG-20010904/DTD/svg10.dtd">
<svg version="1.0" xmlns="http://www.w3.org/2000/svg"
 width="16.000000pt" height="16.000000pt" viewBox="0 0 16.000000 16.000000"
 preserveAspectRatio="xMidYMid meet">
<metadata>
Created by potrace 1.11, written by Peter Selinger 2001-2013
</metadata>
<g transform="translate(0.000000,16.000000) scale(0.003125,-0.003125)"
fill="#000000" stroke="none">
<path d="M3883 4856 c-145 -35 -306 -163 -371 -294 -160 -324 11 -706 361
-807 72 -21 212 -21 291 0 259 69 443 324 422 586 -12 143 -67 262 -170 365
-78 78 -177 133 -274 153 -69 14 -193 13 -259 -3z"/>
<path d="M2035 4406 c-280 -67 -523 -129 -540 -138 -102 -55 -154 -178 -121
-290 30 -104 127 -178 231 -178 31 0 225 41 476 101 l424 100 35 -39 c19 -21
103 -112 185 -201 83 -90 149 -165 148 -167 -1 -3 -237 -257 -525 -565 -333
-357 -532 -576 -547 -607 -51 -97 -28 -234 51 -309 19 -17 263 -148 570 -304
296 -151 538 -277 538 -282 0 -4 -126 -211 -279 -460 -186 -301 -284 -468
-292 -500 -23 -94 7 -186 85 -254 112 -98 289 -78 375 42 49 70 720 1161 732
1191 6 16 11 57 11 90 -1 73 -32 144 -84 190 -18 16 -191 109 -383 206 -193
97 -357 183 -367 190 -14 12 18 49 284 333 165 176 333 356 373 399 l73 79
303 -257 c264 -224 310 -259 357 -272 62 -18 126 -12 183 17 55 27 730 660
758 709 73 131 4 307 -139 355 -66 22 -146 15 -200 -17 -33 -20 -194 -165
-471 -426 l-67 -63 -268 253 c-447 421 -900 853 -1059 1009 -166 163 -207 189
-287 188 -31 0 -268 -52 -563 -123z"/>
<path d="M1411 1949 c-113 -143 -212 -265 -220 -273 -9 -8 -222 -53 -496 -106
-264 -50 -497 -96 -518 -102 -49 -15 -122 -79 -148 -130 -63 -123 -12 -281
110 -342 82 -42 104 -41 391 14 146 28 359 69 475 91 374 71 404 78 442 98 52
26 70 47 322 365 l221 279 -107 59 c-59 32 -127 77 -150 100 -37 36 -81 110
-110 184 -7 19 -35 -12 -212 -237z"/>
</g>
</svg>
